<?xml version="1.0" encoding="utf-8"?>
<!-- Generator: Adobe Illustrator 22.0.1, SVG Export Plug-In . SVG Version: 6.00 Build 0)  -->
<svg version="1.1" id="Layer_1" xmlns="http://www.w3.org/2000/svg" xmlns:xlink="http://www.w3.org/1999/xlink" x="0px" y="0px"
	 viewBox="0 0 8.2 7.5" style="enable-background:new 0 0 8.2 7.5;" xml:space="preserve">
<style type="text/css">
	.st0{fill:#FFFFFF;}
</style>
<path class="st0" d="M1.8,0.7c0-0.1,0-0.2,0-0.3c0-0.1,0.1-0.3,0.2-0.3c0.1,0,0.3,0.1,0.3,0.3c0,0.1,0,0.2,0,0.3c1.1,0,2.3,0,3.4,0
	c0,0,0,0,0,0c0-0.1,0-0.2,0-0.3c0-0.1,0.1-0.3,0.3-0.2c0.1,0,0.2,0.1,0.2,0.2c0,0.1,0,0.2,0,0.3c0,0,0,0,0.1,0c0.2,0,0.4,0,0.6,0
	c0.5,0,0.9,0.4,1,0.9c0,0,0,0.1,0,0.1c0,1.5,0,3.1,0,4.6C8,6.6,7.9,6.8,7.7,7C7.5,7.2,7.3,7.3,7,7.3c-1.9,0-3.9,0-5.8,0
	c-0.5,0-0.9-0.4-1-0.9c0,0,0-0.1,0-0.1c0-1.5,0-3.1,0-4.6c0-0.5,0.3-0.9,0.8-1c0.1,0,0.1,0,0.2,0C1.3,0.7,1.6,0.7,1.8,0.7
	C1.8,0.7,1.8,0.7,1.8,0.7z M0.6,2.7C0.6,2.7,0.6,2.7,0.6,2.7c0,1.3,0,2.5,0,3.7c0,0.3,0.2,0.5,0.5,0.5c1.9,0,3.8,0,5.8,0
	c0.3,0,0.5-0.2,0.5-0.5c0-1.2,0-2.4,0-3.6c0,0,0,0,0,0C5.2,2.7,2.9,2.7,0.6,2.7z M0.6,2.2c2.3,0,4.5,0,6.8,0c0,0,0,0,0,0
	c0-0.2,0-0.3,0-0.5c0-0.3-0.2-0.5-0.5-0.5c-0.2,0-0.4,0-0.6,0c0,0,0,0,0,0c0,0,0,0,0,0c0,0.1,0,0.2,0,0.4c0,0.1-0.1,0.2-0.2,0.2
	c-0.1,0-0.3-0.1-0.3-0.3c0-0.1,0-0.2,0-0.3c0,0,0,0,0,0c-1.1,0-2.3,0-3.4,0c0,0.1,0,0.3,0,0.4c0,0.1-0.1,0.2-0.3,0.2
	c-0.1,0-0.2-0.1-0.2-0.2c0-0.1,0-0.2,0-0.3c0,0,0,0,0,0c0,0,0,0,0,0c-0.2,0-0.5,0-0.7,0c-0.2,0-0.4,0.2-0.5,0.4c0,0.1,0,0.3,0,0.4
	C0.6,2.1,0.6,2.1,0.6,2.2z"/>
<path class="st0" d="M5.5,5.1c0.4,0,0.8,0,1.2,0c0,0.4,0,0.8,0,1.2c-0.4,0-0.8,0-1.2,0C5.5,5.9,5.5,5.5,5.5,5.1z"/>
<path class="st0" d="M5.5,3.2c0.4,0,0.8,0,1.2,0c0,0.4,0,0.8,0,1.2c-0.4,0-0.8,0-1.2,0C5.5,4,5.5,3.6,5.5,3.2z"/>
<path class="st0" d="M1.3,3.2c0.4,0,0.8,0,1.2,0c0,0.4,0,0.8,0,1.2c-0.4,0-0.8,0-1.2,0C1.3,4,1.3,3.6,1.3,3.2z"/>
<path class="st0" d="M3.4,3.2c0.4,0,0.8,0,1.2,0c0,0.4,0,0.8,0,1.2c-0.4,0-0.8,0-1.2,0C3.4,4,3.4,3.6,3.4,3.2z"/>
<path class="st0" d="M2.6,6.3c-0.4,0-0.8,0-1.2,0c0-0.4,0-0.8,0-1.2c0.4,0,0.8,0,1.2,0C2.6,5.5,2.6,5.9,2.6,6.3z"/>
<path class="st0" d="M3.4,6.3c0-0.4,0-0.8,0-1.2c0.4,0,0.8,0,1.2,0c0,0.4,0,0.8,0,1.2C4.2,6.3,3.8,6.3,3.4,6.3z"/>
</svg>
