<?xml version="1.0" encoding="utf-8"?>
<!-- Generator: Adobe Illustrator 22.0.1, SVG Export Plug-In . SVG Version: 6.00 Build 0)  -->
<svg version="1.1" id="Layer_1" xmlns="http://www.w3.org/2000/svg" xmlns:xlink="http://www.w3.org/1999/xlink" x="0px" y="0px"
	 viewBox="0 0 85.5 81.5" style="enable-background:new 0 0 85.5 81.5;" xml:space="preserve">
<style type="text/css">
	.st0{fill:#242424;}
</style>
<path class="st0" d="M80.7,38.4c0,1.8,0,3.5,0,5.3c-0.2,1.4-0.3,2.8-0.6,4.2c-2.7,13.6-10.5,23.2-23.1,28.8c-1.3,0.6-2.7,1-4.1,1.5
	c0-9.6,0-19.1,0-28.6c2.8,0,5.5,0,8.3,0c0.4-3.2,0.8-6.4,1.2-9.6c-0.3,0-0.6,0-0.9,0c-2.7,0-5.3,0-8,0c-0.3,0-0.7,0.1-0.7-0.5
	c0-2.3,0-4.7,0.1-7c0.1-1.7,1.1-2.8,2.8-3.2c0.8-0.2,1.6-0.2,2.5-0.2c1.5,0,2.9,0,4.4,0c0-2.9,0-5.7,0-8.8c-3,0-6-0.1-9-0.1
	c-2,0-3.9,0.7-5.6,1.8c-3.4,2.2-4.9,5.5-5.1,9.4c-0.1,2.6,0,5.1-0.1,7.7c0,0.3,0,0.5,0,0.9c-2.8,0-5.5,0-8.2,0c0,3.2,0,6.4,0,9.6
	c2.7,0,5.4,0,8.2,0c0,0.4,0,0.7,0,1c0,9.4,0,18.7,0,28.1c0,0.3,0,0.6,0,0.9c-1.2,0-2.3,0-3.5,0c-0.2,0-0.4-0.1-0.6-0.1
	c-4.7-0.4-9.2-1.6-13.5-3.7c-15-7.2-23.7-23.4-21.4-40c1-7.5,3.9-14.1,8.9-19.8C22.1,5.7,33.7,1.3,47.5,3c6.4,0.8,12.2,3.2,17.4,7.1
	c8.2,6.1,13.3,14.2,15.2,24.3C80.3,35.7,80.5,37.1,80.7,38.4z"/>
</svg>
