<?xml version="1.0" encoding="utf-8"?>
<!-- Generator: Adobe Illustrator 22.0.1, SVG Export Plug-In . SVG Version: 6.00 Build 0)  -->
<svg version="1.1" id="Layer_1" xmlns="http://www.w3.org/2000/svg" xmlns:xlink="http://www.w3.org/1999/xlink" x="0px" y="0px"
	 viewBox="0 0 85.5 81.5" style="enable-background:new 0 0 85.5 81.5;" xml:space="preserve">
<style type="text/css">
	.st0{fill:#242424;}
</style>
<path class="st0" d="M45.2,80c-1.8,0-3.6,0-5.4,0c-0.9-0.1-1.7-0.2-2.6-0.3c-7.6-1.1-14.4-4.1-20.1-9.2C10.3,64.5,6,57,4.4,48.1
	C4.2,46.8,4,45.4,3.8,44c0-1.8,0-3.6,0-5.4C3.9,38.1,4,37.7,4,37.2c0.7-6.2,2.7-12,6.2-17.1C17.5,9.4,27.6,3.5,40.5,2.7
	C48.1,2.2,55.3,4,61.9,7.8C75.8,15.7,83.5,32,80.7,47.7c-1.5,8.7-5.5,16.1-12,22.1c-5.5,5.1-12,8.3-19.4,9.6
	C48,79.7,46.6,79.8,45.2,80z M65.2,61.1c0-0.4,0-0.7,0-1c0-4.9,0-9.8,0-14.7c0-1.2,0-2.3-0.2-3.5c-0.6-5-3.4-9.3-9.6-9.9
	c-3.7-0.3-6.9,0.8-9.1,3.9c-0.1,0.2-0.3,0.3-0.5,0.6c0-1.4,0-2.7,0-3.9c-3.2,0-6.2,0-9.3,0c0,9.5,0,18.8,0,28.2c3.1,0,6.2,0,9.3,0
	c0-0.4,0-0.7,0-1c0-4.9,0-9.8,0-14.7c0-1.5,0.3-2.9,1.3-4.1c1.4-1.6,3.1-2.1,5.1-1.6c1.8,0.4,2.8,1.7,3.2,3.5
	c0.2,0.7,0.3,1.5,0.3,2.2c0,4.9,0,9.9,0,14.8c0,0.3,0,0.6,0,0.9C59,61.1,62.1,61.1,65.2,61.1z M21.9,32.8c0,9.4,0,18.8,0,28.3
	c3.1,0,6.2,0,9.3,0c0-9.4,0-18.8,0-28.3C28.1,32.8,25,32.8,21.9,32.8z M26.8,19.1c-3.7,0-6.1,2.8-5.4,6c0.5,2,1.8,3.3,3.8,3.7
	c2.2,0.4,4.3,0.1,5.7-1.8c1.2-1.6,1.3-3.4,0.4-5.2C30.4,19.8,28.7,19.2,26.8,19.1z"/>
</svg>
