<?xml version="1.0" encoding="utf-8"?>
<!-- Generator: Adobe Illustrator 22.0.1, SVG Export Plug-In . SVG Version: 6.00 Build 0)  -->
<svg version="1.1" id="Layer_1" xmlns="http://www.w3.org/2000/svg" xmlns:xlink="http://www.w3.org/1999/xlink" x="0px" y="0px"
	 viewBox="0 0 85.5 81.5" style="enable-background:new 0 0 85.5 81.5;" xml:space="preserve">
<style type="text/css">
	.st0{fill:#242424;}
</style>
<path class="st0" d="M39.8,3.3c1.8,0,3.6,0,5.4,0c1.2,0.2,2.4,0.3,3.6,0.5c7,1.2,13.2,4,18.6,8.7c7,6,11.3,13.5,13,22.6
	c0.2,1.3,0.4,2.7,0.6,4c0,1.8,0,3.6,0,5.4c0,0.2-0.1,0.4-0.1,0.6c-0.2,1.3-0.3,2.6-0.5,3.9c-1.9,9.5-6.6,17.2-14.2,23.1
	c-9.1,7.1-19.5,9.5-30.8,7.4c-8.3-1.5-15.3-5.4-20.9-11.6C6.2,59,2.9,48.4,4.4,36.4c1-7.5,4-14.1,9-19.8c6-6.9,13.4-11.1,22.4-12.7
	C37.2,3.7,38.5,3.5,39.8,3.3z M43.5,38.2c3,0,5.8,0,8.7,0c0-2.2,0-4.4,0-6.6c-2.9,0-5.7,0-8.7,0c0-1.9,0-3.7,0-5.5
	c0-1.8,0-3.6,0-5.5c-2.1,0-4.1,0-6,0c-0.4,0-0.6,0.1-0.6,0.6c0,0.5-0.2,1-0.3,1.5c-0.9,4-2.8,7.3-6.6,9.1c-1.5,0.7-1.9,1.5-1.7,3
	c0.1,1.1,0,2.3,0,3.5c1.5,0,2.9,0,4.4,0c0,0.4,0,0.7,0,1c0,4.3,0,8.6,0,12.8c0.1,4.6,2,8.2,6.1,10.4c4.3,2.2,8.7,2,13.1,0
	c1.5-0.7,1.4-0.8,0.9-2.3c-0.5-1.4-0.9-2.7-1.4-4.1c-0.1-0.2-0.2-0.5-0.2-0.6c-1.1,0.2-2.2,0.5-3.3,0.6c-2.6,0.2-4.3-1.3-4.4-3.9
	c0-1,0-1.9,0-2.9C43.5,45.6,43.5,42,43.5,38.2z"/>
</svg>
