<?xml version="1.0" encoding="utf-8"?>
<!-- Generator: Adobe Illustrator 22.0.1, SVG Export Plug-In . SVG Version: 6.00 Build 0)  -->
<svg version="1.1" id="Layer_1" xmlns="http://www.w3.org/2000/svg" xmlns:xlink="http://www.w3.org/1999/xlink" x="0px" y="0px"
	 viewBox="0 0 85.5 81.5" style="enable-background:new 0 0 85.5 81.5;" xml:space="preserve">
<style type="text/css">
	.st0{fill:#242424;}
</style>
<path class="st0" d="M80.1,34.6c-1.6-9.1-6-16.7-13-22.7c-5.4-4.6-11.7-7.5-18.7-8.7C47.2,3,46,2.8,44.7,2.7c-1.8,0-3.6,0-5.4,0
	c-1.3,0.2-2.7,0.4-4,0.6c-9,1.6-16.5,5.9-22.5,12.8c-5,5.7-8.1,12.4-9,19.9C2.2,48,5.5,58.6,13.7,67.6c5.7,6.2,12.8,10.2,21.1,11.7
	c11.4,2.1,21.8-0.4,31-7.5c7.7-5.9,12.4-13.7,14.3-23.2c0.3-1.3,0.3-2.6,0.5-3.9c0-0.2,0.1-0.4,0.1-0.7c0-1.8,0-3.6,0-5.4
	C80.5,37.3,80.3,35.9,80.1,34.6z M47.7,51.7c-3.3,3.6-6.8,6.9-10.3,10.4c-1.5,1.5-3.5,2.4-5.6,2.7c-0.1,0-0.2,0.1-0.3,0.2
	c-0.8,0-1.6,0-2.4,0c-0.1-0.1-0.2-0.1-0.3-0.2c-4.4-0.7-7.2-3.3-8.7-7.4c-0.2-0.6-0.3-1.3-0.5-2c0-0.8,0-1.6,0-2.4
	c0.1-0.5,0.2-1.1,0.4-1.6c0.6-1.3,1.1-2.8,2.1-3.9c2.3-2.5,4.8-4.7,7.1-6.9c0.3,1.5,0.8,3.2,1.1,4.9c0,0.2-0.2,0.6-0.4,0.8
	c-1.2,1.2-2.4,2.4-3.6,3.6c-1.7,1.7-2.4,3.7-1.5,6.1c0.8,2.4,2.6,3.7,5,4.1c1.6,0.2,3.1-0.3,4.3-1.4c3.4-3.3,6.8-6.6,10-10
	c2.5-2.6,1.8-6.4-1.3-8.7c1.1-1.1,2.2-2.3,3.4-3.4C51,39.9,51.9,47.2,47.7,51.7z M64.2,32.1c-0.1,0.5-0.2,1.1-0.4,1.6
	c-0.7,1.4-1.1,2.9-2.1,4c-2.3,2.5-4.8,4.7-7,6.8c-0.4-1.5-0.8-3.2-1.1-5c0-0.2,0.2-0.6,0.4-0.8c1.2-1.2,2.4-2.4,3.6-3.6
	c1.7-1.7,2.4-3.7,1.5-6.1c-0.8-2.4-2.6-3.7-5-4.1c-1.6-0.2-3.1,0.3-4.3,1.4c-3.4,3.3-6.8,6.6-10,10c-2.5,2.6-1.8,6.4,1.3,8.8
	c-1.1,1.1-2.2,2.3-3.4,3.4c-4.8-3.4-5.7-10.8-1.6-15.2c3.5-3.7,7.1-7.2,10.7-10.8c1.4-1.3,3.1-2,4.9-2.3c0.2,0,0.4-0.1,0.6-0.2
	c0.8,0,1.6,0,2.4,0c0.1,0.1,0.2,0.1,0.3,0.2c4.4,0.7,7.2,3.3,8.7,7.4c0.2,0.6,0.3,1.3,0.5,2C64.2,30.5,64.2,31.3,64.2,32.1z"/>
</svg>
